<svg width="32" height="32" viewBox="0 0 32 32" fill="none" xmlns="http://www.w3.org/2000/svg">
    <path fill-rule="evenodd" clip-rule="evenodd" d="M18.3124 18.3124C18.729 17.8959 19.4044 17.8959 19.8209 18.3124L25.6876 24.1791C26.1041 24.5956 26.1041 25.271 25.6876 25.6876C25.271 26.1041 24.5956 26.1041 24.1791 25.6876L18.3124 19.8209C17.8959 19.4044 17.8959 18.729 18.3124 18.3124Z" fill="#21242D"/>
    <path fill-rule="evenodd" clip-rule="evenodd" d="M14 8.28571C10.8441 8.28571 8.28571 10.8441 8.28571 14C8.28571 17.1559 10.8441 19.7143 14 19.7143C17.1559 19.7143 19.7143 17.1559 19.7143 14C19.7143 10.8441 17.1559 8.28571 14 8.28571ZM6 14C6 9.58172 9.58172 6 14 6C18.4183 6 22 9.58172 22 14C22 18.4183 18.4183 22 14 22C9.58172 22 6 18.4183 6 14Z" fill="#21242D"/>
</svg>
